Coordinates
version=1
nRows=49
nColumns=12
inDegrees=yes

Units are S.I. units (second, meters, Newtons, ...)
Angles are in degrees

endheader
time	SC_y	SC_z	SC_x	AC_y	AC_z	AC_x	GH_y	GH_z	GH_yy	EL_x	PS_y
       0.0              -56.68          1.459          81.86          62.94          1.661          4.912         -107.2          60.26         -117.9          25.99          25.39
   0.03495              -56.68          1.463          81.85          62.94           1.66          4.911         -107.2          60.25         -117.9           26.0          25.39
   0.06991              -56.67          1.467          81.85          62.94          1.659           4.91         -107.2          60.25         -117.9           26.0          25.39
    0.1049              -56.67          1.472          81.85          62.94          1.658          4.909         -107.2          60.24         -117.9           26.0          25.39
    0.1398              -56.67          1.476          81.85          62.94          1.657          4.908         -107.1          60.23         -117.9           26.0          25.39
    0.1748              -56.66          1.481          81.85          62.94          1.656          4.906         -107.1          60.23         -117.9          26.01          25.39
    0.2097              -56.66          1.486          81.85          62.94          1.655          4.905         -107.1          60.22         -117.9          26.01          25.39
    0.2447              -56.66          1.492          81.85          62.94          1.654          4.904         -107.1          60.21         -117.9          26.01          25.39
    0.2796              -56.65          1.498          81.85          62.94          1.652          4.902         -107.0          60.21         -117.9          26.02          25.38
    0.3146              -56.65          1.504          81.84          62.94          1.651            4.9         -107.0           60.2         -118.0          26.02          25.38
    0.3495              -56.65          1.511          81.84          62.94          1.649          4.898         -107.0          60.19         -118.0          26.02          25.38
    0.3845              -56.64          1.519          81.84          62.94          1.648          4.897         -106.9          60.18         -118.0          26.03          25.38
    0.4194              -56.64          1.527          81.84          62.94          1.646          4.894         -106.9          60.17         -118.0          26.03          25.38
    0.4544              -56.63          1.536          81.83          62.94          1.644          4.892         -106.8          60.16         -118.0          26.04          25.38
    0.4893              -56.63          1.545          81.83          62.94          1.642           4.89         -106.8          60.15         -118.0          26.04          25.38
    0.5243              -56.62          1.555          81.83          62.93           1.64          4.887         -106.7          60.13         -118.0          26.05          25.38
    0.5593              -56.61          1.566          81.83          62.93          1.637          4.884         -106.7          60.12         -118.0          26.05          25.37
    0.5942              -56.61          1.578          81.82          62.93          1.634          4.881         -106.6           60.1         -118.0          26.06          25.37
    0.6292               -56.6          1.592          81.82          62.93          1.631          4.878         -106.5          60.09         -118.1          26.07          25.37
    0.6641              -56.59          1.606          81.82          62.93          1.628          4.874         -106.5          60.07         -118.1          26.07          25.37
    0.6991              -56.58          1.622          81.81          62.93          1.624           4.87         -106.4          60.05         -118.1          26.08          25.37
     0.734              -56.57          1.639          81.81          62.93          1.621          4.865         -106.3          60.03         -118.1          26.09          25.36
     0.769              -56.56          1.659           81.8          62.93          1.616           4.86         -106.2           60.0         -118.2           26.1          25.36
    0.8039              -56.54           1.68          81.79          62.93          1.611          4.855         -106.1          59.98         -118.2          26.11          25.36
    0.8389              -56.53          1.704          81.79          62.92          1.606          4.849         -106.0          59.95         -118.2          26.12          25.35
    0.8738              -56.51           1.73          81.78          62.92            1.6          4.842         -105.9          59.91         -118.3          26.14          25.35
    0.9088               -56.5           1.76          81.77          62.92          1.593          4.834         -105.7          59.87         -118.3          26.15          25.34
    0.9437              -56.47          1.793          81.76          62.92          1.586          4.826         -105.5          59.83         -118.3          26.17          25.34
    0.9787              -56.45          1.831          81.75          62.91          1.577          4.816         -105.3          59.78         -118.4          26.19          25.33
     1.014              -56.43          1.874          81.74          62.91          1.567          4.805         -105.1          59.73         -118.4          26.22          25.33
     1.049               -56.4          1.922          81.73          62.91          1.556          4.792         -104.9          59.67         -118.5          26.24          25.32
     1.084              -56.36          1.979          81.71           62.9          1.544          4.777         -104.6           59.6         -118.6          26.27          25.31
     1.119              -56.32          2.043          81.69           62.9          1.529          4.761         -104.3          59.51         -118.7          26.31           25.3
     1.153              -56.28          2.118          81.67          62.89          1.512          4.741         -103.9          59.42         -118.8          26.35          25.29
     1.188              -56.22          2.206          81.65          62.89          1.492          4.718         -103.4          59.31         -118.9          26.39          25.27
     1.223              -56.16           2.31          81.62          62.88          1.469          4.692         -102.9          59.17         -119.0          26.45          25.26
     1.258              -56.09          2.434          81.59          62.87          1.441           4.66         -102.3          59.02         -119.2          26.51          25.24
     1.293               -56.0          2.581          81.54          62.86          1.407          4.621         -101.6          58.83         -119.4          26.59          25.21
     1.328              -55.89           2.76          81.49          62.85          1.367          4.575         -100.7           58.6         -119.6          26.69          25.19
     1.363              -55.75          2.979          81.43          62.83          1.317          4.518         -99.56          58.32         -119.9           26.8          25.15
     1.398              -55.59          3.248          81.36          62.81          1.256          4.449          -98.2          57.98         -120.3          26.95          25.11
     1.433              -55.39          3.584          81.26          62.79           1.18          4.361          -96.5          57.55         -120.7          27.13          25.06
     1.468              -55.13          4.008          81.15          62.75          1.084          4.252         -94.37          57.02         -121.3          27.35          24.99
     1.503               -54.8          4.546           81.0          62.71         0.9626          4.112         -91.66          56.33         -122.0          27.64           24.9
     1.538              -54.38          5.235          80.81          62.66         0.8067          3.934         -88.18          55.46         -122.9          28.01           24.8
     1.573              -53.84          6.119          80.56           62.6         0.6066          3.705         -83.73          54.33         -124.0          28.48          24.66
     1.608              -53.16          7.249          80.25          62.52          0.351          3.412         -78.04           52.9         -125.5          29.08          24.48
     1.643              -52.29          8.669          79.85          62.41        0.02954          3.044         -70.88          51.09         -127.4          29.84          24.25
     1.678              -51.24           10.4          79.37          62.28        -0.3622          2.596         -62.15          48.89         -129.7          30.76          23.98
